<?xml version="1.0" encoding="utf-8"?>
<!-- Generator: Adobe Illustrator 24.0.3, SVG Export Plug-In . SVG Version: 6.00 Build 0)  -->
<svg version="1.1" id="Layer_1" xmlns="http://www.w3.org/2000/svg" xmlns:xlink="http://www.w3.org/1999/xlink" x="0px" y="0px"
	 viewBox="0 0 24 24" style="enable-background:new 0 0 24 24;" xml:space="preserve">
<style type="text/css">
	.st0{fill:#FFFFFF;}
</style>
<path class="st0" d="M9.8,9.9c-1.1,0-2,0.9-2,2s0.9,2,2,2s2-0.9,2-2S10.9,9.9,9.8,9.9z M14.2,9.9c-0.9,0-1.7,0.7-1.7,1.7
	c0,0.9,0.7,1.7,1.7,1.7s1.7-0.7,1.7-1.7C15.8,10.6,15.1,9.9,14.2,9.9z M17.9,9.9c-0.7,0-1.3,0.6-1.3,1.3c0,0.7,0.6,1.3,1.3,1.3
	s1.3-0.6,1.3-1.3C19.2,10.5,18.6,9.9,17.9,9.9z M17.7,13.9c-0.6,0-1,0.2-1.4,0.4c1.1,0.6,1.6,1.5,1.6,1.6l0,0h2v-0.7
	C19.9,15.2,19.3,13.9,17.7,13.9z M14.2,14.6c-0.8,0-1.4,0.2-1.9,0.5c1.6,0.7,2.1,2,2.2,2.1l0,0h2.7v-0.9
	C17.2,16.3,16.5,14.6,14.2,14.6z M9.8,15.2c-3,0-4,2.2-4,2.2v1.1h8v-1.1C13.8,17.5,12.9,15.2,9.8,15.2z"/>
<g transform="translate(0 -540.36)">
	<g>
		<g>
			<path class="st0" d="M21.3,543.5L21.3,543.5H17V543c0-0.3-0.2-0.5-0.5-0.5h-1.3c-0.2-1.1-1.2-2-2.5-2c0,0,0,0,0,0
				c-1.2,0-2.3,0.9-2.5,2H9c-0.3,0-0.5,0.2-0.5,0.5v0.5H4.1c-0.3,0-0.5,0.2-0.5,0.5v19.9c0,0.3,0.2,0.5,0.5,0.5h17.2
				c0.3,0,0.5-0.2,0.5-0.5V544C21.8,543.7,21.6,543.5,21.3,543.5z M12.7,541.8c0.7,0,1.3,0.5,1.5,1h-2.9
				C11.5,542.2,12,541.8,12.7,541.8z M9.2,544h7.1v0.5H9.2V544z M20.2,562.6H5.3v-17.3h3.3v0.5c0,0.2,0.2,0.4,0.4,0.4h7.4
				c0.2,0,0.4-0.2,0.4-0.4v-0.5h3.3V562.6z"/>
		</g>
	</g>
</g>
</svg>
